# xmcd
# 
# Track frame offsets:
#     150
#     13250
#     27195
#     40277
#     53305
#     65077
#     79880
#     91797
#     104600
#     118607
#     129912
#     140905
#     153337
#     164672
#     177475
#     188915
# 
# Disc length: 2688
# 
# Revision: 3
# Processed by: cddbd v1.5.2PL0 Copyright (c) Steve Scherf et al.
# Submitted via: fre:ac v1.0.31
# 
DISCID=dc0a7e10
DTITLE=Tex Ritter - Country Music Hall Of Fame Series
DYEAR=0
DGENRE=Country
TTITLE0=Sam Hall
TTITLE1=Get Along Little Dogies
TTITLE2=Lady Killin' Cowboy
TTITLE3=Bill, The Bar Fly
TTITLE4=My Brown Eyed Texas Rose
TTITLE5=(Take Me Back To My) Boots and Saddles
TTITLE6=The Hills of Old Wyomin'
TTITLE7=We'll Rest at the End of the Trail
TTITLE8=High, Wide and Handsome
TTITLE9=I'm a Natural Born Cowboy
TTITLE10=Ride, Ride, Ride
TTITLE11=Sing, Cowboy, Sing
TTITLE12=When It's LampLighting Time in the Valley
TTITLE13=Singin' in the Saddle
TTITLE14=Ai Viva Tequila
TTITLE15=Out on the Lone Prairie
EXTD=
EXTT0=1935\n
EXTT1=1935\n
EXTT2=1935\n
EXTT3=1935\n
EXTT4=1935\n
EXTT5=1935\n
EXTT6=1936\n
EXTT7=1936\n
EXTT8=1936\n
EXTT9=1937\n
EXTT10=1937\n
EXTT11=1937\n
EXTT12=1939\n
EXTT13=1939\n
EXTT14=1939\n
EXTT15=1936\n
PLAYORDER=
